<svg width="28" height="29" viewBox="0 0 28 29" fill="none" xmlns="http://www.w3.org/2000/svg">
<g filter="url(#filter0_d_1_3687)">
<path d="M14 1.83337C11.5688 1.83337 9.23725 2.79914 7.51817 4.51823C5.79908 6.23731 4.83331 8.56889 4.83331 11C4.83331 13.4312 5.79908 15.7628 7.51817 17.4819C9.23725 19.2009 11.5688 20.1667 14 20.1667C16.4311 20.1667 18.7627 19.2009 20.4818 17.4819C22.2009 15.7628 23.1666 13.4312 23.1666 11C23.1666 8.56889 22.2009 6.23731 20.4818 4.51823C18.7627 2.79914 16.4311 1.83337 14 1.83337Z" fill="#29B6F6"/>
<path d="M18.5604 6.87496L16.8435 15.641C16.8435 15.641 16.7697 16.0416 16.2729 16.0416C16.0089 16.0416 15.8727 15.916 15.8727 15.916L12.1538 12.8301L10.3342 11.913L7.99902 11.2919C7.99902 11.2919 7.58331 11.1718 7.58331 10.8281C7.58331 10.5416 8.01094 10.405 8.01094 10.405L17.7808 6.52388C17.7803 6.52342 18.0791 6.41617 18.2969 6.41663C18.4307 6.41663 18.5833 6.47392 18.5833 6.64579C18.5833 6.76038 18.5604 6.87496 18.5604 6.87496Z" fill="white"/>
<path d="M13.5417 13.9815L11.9714 15.5279C11.9714 15.5279 11.9031 15.5806 11.8119 15.5829C11.7803 15.5838 11.7464 15.5788 11.7115 15.5632L12.1534 12.8292L13.5417 13.9815Z" fill="#B0BEC5"/>
<path d="M16.7028 8.33978C16.6253 8.23895 16.4823 8.22062 16.3815 8.29716L10.3333 11.9166C10.3333 11.9166 11.2986 14.6171 11.4457 15.0846C11.5933 15.5526 11.7115 15.5636 11.7115 15.5636L12.1534 12.8296L16.6597 8.66062C16.7605 8.58408 16.7793 8.44062 16.7028 8.33978Z" fill="#CFD8DC"/>
</g>
<defs>
<filter id="filter0_d_1_3687" x="-1" y="0" width="30" height="30" filterUnits="userSpaceOnUse" color-interpolation-filters="sRGB">
<feFlood flood-opacity="0" result="BackgroundImageFix"/>
<feColorMatrix in="SourceAlpha" type="matrix" values="0 0 0 0 0 0 0 0 0 0 0 0 0 0 0 0 0 0 127 0" result="hardAlpha"/>
<feOffset dy="4"/>
<feGaussianBlur stdDeviation="2"/>
<feComposite in2="hardAlpha" operator="out"/>
<feColorMatrix type="matrix" values="0 0 0 0 0 0 0 0 0 0 0 0 0 0 0 0 0 0 0.25 0"/>
<feBlend mode="normal" in2="BackgroundImageFix" result="effect1_dropShadow_1_3687"/>
<feBlend mode="normal" in="SourceGraphic" in2="effect1_dropShadow_1_3687" result="shape"/>
</filter>
</defs>
</svg>
