<svg width="40" height="40" viewBox="0 0 40 40" fill="none" xmlns="http://www.w3.org/2000/svg">
<g  clip-path="url(#clip0_5759_901)">
<path d="M21.4991 26.0001C21.5649 26.0005 21.6301 25.9879 21.691 25.963C21.7519 25.9381 21.8073 25.9014 21.8541 25.8551C21.9009 25.8086 21.9381 25.7533 21.9635 25.6924C21.9889 25.6315 22.002 25.5661 22.002 25.5001C22.002 25.4341 21.9889 25.3687 21.9635 25.3078C21.9381 25.2469 21.9009 25.1916 21.8541 25.1451L17.7691 21.0601C17.4882 20.7788 17.3304 20.3976 17.3304 20.0001C17.3304 19.6026 17.4882 19.2213 17.7691 18.9401L21.8541 14.8551C21.9482 14.7609 22.0011 14.6332 22.0011 14.5001C22.0011 14.3669 21.9482 14.2392 21.8541 14.1451C21.7599 14.0509 21.6322 13.998 21.4991 13.998C21.3659 13.998 21.2382 14.0509 21.1441 14.1451L17.0591 18.2301C16.8262 18.4623 16.6415 18.7382 16.5155 19.0419C16.3895 19.3457 16.3246 19.6713 16.3246 20.0001C16.3246 20.3289 16.3895 20.6545 16.5155 20.9583C16.6415 21.262 16.8262 21.5379 17.0591 21.7701L21.1441 25.8551C21.1908 25.9014 21.2462 25.9381 21.3071 25.963C21.368 25.9879 21.4333 26.0005 21.4991 26.0001Z" fill="white"/>
</g>
<rect x="-0.5" y="0.5" width="39" height="39" rx="19.5" transform="matrix(-1 0 0 1 39 0)" stroke="white"  stroke-opacity="0.7"/>
<defs>
<clipPath id="clip0_5759_901">
<rect width="12" height="12" fill="white" transform="matrix(-1 0 0 1 25 14)"/>
</clipPath>
</defs>
</svg>
