<svg width="17" height="8" viewBox="0 0 17 8" fill="none" xmlns="http://www.w3.org/2000/svg">
<path d="M0.499958 1.08362C0.499451 0.99588 0.516267 0.908905 0.549443 0.82768C0.58262 0.746455 0.631504 0.672577 0.693292 0.610284C0.755267 0.547798 0.829 0.498202 0.91024 0.464357C0.991479 0.430511 1.07862 0.413085 1.16662 0.413085C1.25463 0.413085 1.34177 0.430511 1.42301 0.464357C1.50425 0.498203 1.57798 0.547799 1.63996 0.610284L7.08662 6.05695C7.46162 6.43149 7.96996 6.64186 8.49996 6.64186C9.02996 6.64186 9.53829 6.43149 9.91329 6.05695L15.36 0.610285C15.4855 0.484749 15.6558 0.414224 15.8333 0.414224C16.0108 0.414224 16.1811 0.484749 16.3066 0.610285C16.4322 0.735821 16.5027 0.906084 16.5027 1.08362C16.5027 1.26115 16.4322 1.43142 16.3066 1.55695L10.86 7.00362C10.5503 7.31404 10.1825 7.56032 9.77752 7.72837C9.37255 7.89641 8.93841 7.98291 8.49996 7.98291C8.06151 7.98291 7.62737 7.89641 7.2224 7.72837C6.81743 7.56032 6.4496 7.31404 6.13996 7.00362L0.693292 1.55695C0.631504 1.49466 0.58262 1.42078 0.549443 1.33956C0.516267 1.25833 0.499451 1.17136 0.499958 1.08362Z" fill="#2D2D2D"/>
</svg>
