<svg width="154" height="20" viewBox="0 0 154 20" fill="none" xmlns="http://www.w3.org/2000/svg">
<g clip-path="url(#clip0_5809_1071)">
<path d="M10.4972 12.1696C10.4972 11.1696 9.8099 9.8029 8.5639 8.3209C8.49494 8.23863 8.40858 8.1727 8.31105 8.12785C8.21351 8.083 8.10724 8.06037 7.9999 8.06157C7.89177 8.06108 7.78482 8.08414 7.6865 8.12915C7.58818 8.17417 7.50085 8.24006 7.43057 8.32224C6.06657 9.92024 5.3999 11.3336 5.51523 12.4169C5.56062 12.7594 5.67808 13.0884 5.85987 13.3823C6.04166 13.6761 6.28365 13.9281 6.5699 14.1216C6.97483 14.4536 7.47671 14.645 7.9999 14.6669C8.66202 14.6662 9.29681 14.4029 9.765 13.9347C10.2332 13.4665 10.4965 12.8317 10.4972 12.1696Z" fill="#FF7534"/>
<path d="M11.0859 1.93323C10.5619 1.48789 10.0119 1.02123 9.45195 0.511893C9.23961 0.319114 8.9877 0.175075 8.71385 0.0898585C8.44001 0.00464206 8.15085 -0.019692 7.86661 0.0185598C7.59114 0.0550441 7.32703 0.151573 7.09295 0.301327C6.85888 0.451081 6.66054 0.650408 6.51195 0.885226C5.71754 2.21311 5.15569 3.66689 4.85061 5.18389C4.73126 5.01106 4.62517 4.82943 4.53328 4.64056C4.43892 4.44175 4.29682 4.26939 4.11965 4.13885C3.94248 4.00831 3.73575 3.92365 3.51791 3.89243C3.30007 3.8612 3.07789 3.88438 2.87119 3.9599C2.66448 4.03542 2.47969 4.16093 2.33328 4.32523C1.21548 5.46816 0.595856 7.00728 0.609947 8.60589C0.594488 10.2389 1.12557 11.8301 2.11869 13.1264C3.11181 14.4228 4.50993 15.3497 6.09061 15.7599C6.69584 15.9122 7.3172 15.991 7.94128 15.9946C7.14377 15.9648 6.37723 15.6781 5.75595 15.1772C5.32555 14.8743 4.96366 14.4843 4.69376 14.0325C4.42386 13.5806 4.25198 13.0771 4.18928 12.5546C4.03595 11.0812 4.78461 9.36589 6.41461 7.45656C6.61016 7.22734 6.85325 7.04342 7.12701 6.91759C7.40078 6.79176 7.69865 6.72703 7.99995 6.72789H8.00661C8.30703 6.72814 8.60378 6.79388 8.87619 6.92053C9.1486 7.04718 9.39013 7.2317 9.58395 7.46123C10.6093 8.67923 11.8326 10.4846 11.8326 12.1686C11.8311 13.139 11.4616 14.0728 10.7985 14.7814C10.1354 15.49 9.22818 15.9207 8.25995 15.9866C10.1744 15.9249 11.9896 15.1204 13.3211 13.7434C14.6526 12.3665 15.3958 10.5253 15.3933 8.60989C15.3899 5.58989 13.3953 3.89656 11.0859 1.93323Z" fill="#FF7534"/>
</g>
<path d="M28.28 3.78H36.12V5.6H33.18V14H31.22V5.6H28.28V3.78ZM40.1105 12.46C40.5679 12.46 40.9972 12.4273 41.3985 12.362C41.8092 12.2873 42.1032 12.2173 42.2805 12.152L42.5605 12.04V13.72C42.0472 14 41.1839 14.14 39.9705 14.14C38.7012 14.14 37.7632 13.832 37.1565 13.216C36.5592 12.5907 36.2605 11.6153 36.2605 10.29C36.2605 8.974 36.5499 8.00333 37.1285 7.378C37.7165 6.75267 38.5939 6.44 39.7605 6.44C40.7405 6.44 41.5105 6.71533 42.0705 7.266C42.6305 7.81667 42.9105 8.568 42.9105 9.52V10.85H38.1505C38.1505 11.0367 38.1599 11.2373 38.1785 11.452C38.2065 11.6573 38.2299 11.816 38.2485 11.928L38.2905 12.11C38.6172 12.3433 39.2239 12.46 40.1105 12.46ZM39.7605 8.12C39.1632 8.12 38.7525 8.22733 38.5285 8.442C38.3139 8.65667 38.1879 9.06267 38.1505 9.66H41.0905V8.4C40.7639 8.21333 40.3205 8.12 39.7605 8.12ZM46.3433 6.58V7.56H46.4133C46.4319 7.532 46.4599 7.49467 46.4973 7.448C46.5346 7.392 46.6186 7.29867 46.7493 7.168C46.8893 7.03733 47.0386 6.92533 47.1973 6.832C47.3559 6.72933 47.5659 6.64067 47.8273 6.566C48.0886 6.482 48.3639 6.44 48.6533 6.44C50.5666 6.44 51.5233 7.72333 51.5233 10.29C51.5233 12.8567 50.5666 14.14 48.6533 14.14C48.1959 14.14 47.7806 14.0653 47.4073 13.916C47.0339 13.7573 46.7773 13.6033 46.6373 13.454L46.4133 13.23H46.3433V17.22H44.5233V6.58H46.3433ZM49.6333 10.29C49.6333 9.93533 49.6193 9.60867 49.5913 9.31C49.5726 9.002 49.5493 8.78267 49.5213 8.652L49.4933 8.47C49.1666 8.23667 48.6999 8.12 48.0933 8.12C47.7573 8.12 47.4446 8.15733 47.1553 8.232C46.8659 8.29733 46.6559 8.36267 46.5253 8.428L46.3433 8.54V11.97C46.7633 12.2967 47.2999 12.46 47.9533 12.46C48.5973 12.46 49.0359 12.3153 49.2693 12.026C49.5119 11.7273 49.6333 11.1487 49.6333 10.29ZM60.2066 9.38L58.3166 14H56.8466L54.9566 9.38H54.8166L54.9566 10.08V14H53.1366V6.58H55.4466L57.4066 11.27L57.5466 11.97H57.6866L57.8266 11.27L59.7866 6.58H62.0266V14H60.2066V10.08L60.3466 9.38H60.2066ZM65.6616 6.58V14H63.8416V6.58H65.6616ZM65.6616 3.78V5.53H63.8416V3.78H65.6616ZM72.4484 14V10.99H69.2984V14H67.4784V6.58H69.2984V9.31H72.4484V6.58H74.2684V14H72.4484ZM82.1396 7.378C82.7276 8.00333 83.0216 8.974 83.0216 10.29C83.0216 11.606 82.7276 12.5767 82.1396 13.202C81.5516 13.8273 80.6556 14.14 79.4516 14.14C78.2476 14.14 77.3516 13.8273 76.7636 13.202C76.1756 12.5767 75.8816 11.606 75.8816 10.29C75.8816 8.974 76.1756 8.00333 76.7636 7.378C77.3516 6.75267 78.2476 6.44 79.4516 6.44C80.6556 6.44 81.5516 6.75267 82.1396 7.378ZM79.3116 12.46C80.021 12.46 80.5016 12.3153 80.7536 12.026C81.0056 11.7367 81.1316 11.158 81.1316 10.29C81.1316 9.93533 81.1176 9.60867 81.0896 9.31C81.071 9.002 81.0523 8.78267 81.0336 8.652L80.9916 8.47C80.665 8.23667 80.1983 8.12 79.5916 8.12C78.8823 8.12 78.4016 8.26467 78.1496 8.554C77.8976 8.84333 77.7716 9.422 77.7716 10.29C77.7716 10.6447 77.781 10.976 77.7996 11.284C77.8276 11.5827 77.851 11.7973 77.8696 11.928L77.9116 12.11C78.2383 12.3433 78.705 12.46 79.3116 12.46ZM84.6366 14V6.58H88.1366C89.0139 6.58 89.6766 6.762 90.1246 7.126C90.5726 7.48067 90.7966 7.952 90.7966 8.54C90.7966 8.77333 90.7499 8.988 90.6566 9.184C90.5632 9.37067 90.4512 9.52 90.3206 9.632C90.1992 9.73467 90.0732 9.82333 89.9426 9.898C89.8119 9.97267 89.6999 10.024 89.6066 10.052L89.4666 10.08V10.15C89.5132 10.1593 89.5692 10.1733 89.6346 10.192C89.7092 10.2013 89.8399 10.248 90.0266 10.332C90.2132 10.4067 90.3766 10.5047 90.5166 10.626C90.6566 10.738 90.7826 10.906 90.8946 11.13C91.0159 11.354 91.0766 11.6107 91.0766 11.9C91.0766 12.5253 90.8339 13.034 90.3486 13.426C89.8726 13.8087 89.1819 14 88.2766 14H84.6366ZM86.4566 12.46H88.2766C88.8832 12.46 89.1866 12.18 89.1866 11.62C89.1866 11.5173 89.1679 11.4147 89.1306 11.312C89.0932 11.2 89.0559 11.116 89.0186 11.06L88.9766 10.99H86.4566V12.46ZM86.4566 9.45H88.0666C88.6266 9.45 88.9066 9.19333 88.9066 8.68C88.9066 8.57733 88.8879 8.47933 88.8506 8.386C88.8132 8.29267 88.7759 8.22267 88.7386 8.176L88.6966 8.12H86.4566V9.45ZM94.0226 11.83V12.25C94.3026 12.4833 94.6992 12.6 95.2126 12.6C95.5486 12.6 95.8612 12.558 96.1506 12.474C96.4399 12.39 96.6452 12.3107 96.7666 12.236L96.9626 12.11V10.92C96.4959 10.8733 95.9359 10.85 95.2826 10.85C94.4426 10.85 94.0226 11.1767 94.0226 11.83ZM95.1426 8.12C94.7319 8.12 94.3306 8.162 93.9386 8.246C93.5559 8.33 93.2759 8.40933 93.0986 8.484L92.8326 8.61L92.9726 6.93C93.0286 6.89267 93.1126 6.846 93.2246 6.79C93.3459 6.734 93.6166 6.664 94.0366 6.58C94.4659 6.48667 94.9279 6.44 95.4226 6.44C96.5239 6.44 97.3592 6.70133 97.9286 7.224C98.4979 7.73733 98.7826 8.456 98.7826 9.38V14H96.9626V13.02H96.8926C96.8739 13.048 96.8459 13.09 96.8086 13.146C96.7712 13.1927 96.6826 13.2813 96.5426 13.412C96.4119 13.5427 96.2672 13.6593 96.1086 13.762C95.9499 13.8553 95.7399 13.9393 95.4786 14.014C95.2172 14.098 94.9419 14.14 94.6526 14.14C93.8499 14.14 93.2386 13.9393 92.8186 13.538C92.4079 13.1367 92.2026 12.5673 92.2026 11.83C92.2026 11.1113 92.4359 10.5467 92.9026 10.136C93.3786 9.72533 94.0786 9.52 95.0026 9.52C95.3759 9.52 95.7259 9.534 96.0526 9.562C96.3792 9.58067 96.6126 9.604 96.7526 9.632L96.9626 9.66V8.61C96.9252 8.57267 96.8646 8.526 96.7806 8.47C96.7059 8.414 96.5099 8.344 96.1926 8.26C95.8846 8.16667 95.5346 8.12 95.1426 8.12ZM109.349 14V10.99H106.199V14H104.379V6.58H106.199V9.31H109.349V6.58H111.169V14H109.349ZM119.04 7.378C119.628 8.00333 119.922 8.974 119.922 10.29C119.922 11.606 119.628 12.5767 119.04 13.202C118.452 13.8273 117.556 14.14 116.352 14.14C115.148 14.14 114.252 13.8273 113.664 13.202C113.076 12.5767 112.782 11.606 112.782 10.29C112.782 8.974 113.076 8.00333 113.664 7.378C114.252 6.75267 115.148 6.44 116.352 6.44C117.556 6.44 118.452 6.75267 119.04 7.378ZM116.212 12.46C116.921 12.46 117.402 12.3153 117.654 12.026C117.906 11.7367 118.032 11.158 118.032 10.29C118.032 9.93533 118.018 9.60867 117.99 9.31C117.971 9.002 117.953 8.78267 117.934 8.652L117.892 8.47C117.565 8.23667 117.099 8.12 116.492 8.12C115.783 8.12 115.302 8.26467 115.05 8.554C114.798 8.84333 114.672 9.422 114.672 10.29C114.672 10.6447 114.681 10.976 114.7 11.284C114.728 11.5827 114.751 11.7973 114.77 11.928L114.812 12.11C115.139 12.3433 115.605 12.46 116.212 12.46ZM121.537 14V6.58H125.037C125.914 6.58 126.577 6.762 127.025 7.126C127.473 7.48067 127.697 7.952 127.697 8.54C127.697 8.77333 127.65 8.988 127.557 9.184C127.464 9.37067 127.352 9.52 127.221 9.632C127.1 9.73467 126.974 9.82333 126.843 9.898C126.712 9.97267 126.6 10.024 126.507 10.052L126.367 10.08V10.15C126.414 10.1593 126.47 10.1733 126.535 10.192C126.61 10.2013 126.74 10.248 126.927 10.332C127.114 10.4067 127.277 10.5047 127.417 10.626C127.557 10.738 127.683 10.906 127.795 11.13C127.916 11.354 127.977 11.6107 127.977 11.9C127.977 12.5253 127.734 13.034 127.249 13.426C126.773 13.8087 126.082 14 125.177 14H121.537ZM123.357 12.46H125.177C125.784 12.46 126.087 12.18 126.087 11.62C126.087 11.5173 126.068 11.4147 126.031 11.312C125.994 11.2 125.956 11.116 125.919 11.06L125.877 10.99H123.357V12.46ZM123.357 9.45H124.967C125.527 9.45 125.807 9.19333 125.807 8.68C125.807 8.57733 125.788 8.47933 125.751 8.386C125.714 8.29267 125.676 8.22267 125.639 8.176L125.597 8.12H123.357V9.45ZM134.283 9.66L131.273 14H129.453V6.58H131.273V10.92L131.133 11.62H131.273L131.553 10.92L134.563 6.58H136.383V14H134.563V9.66L134.703 8.96H134.563L134.283 9.66ZM143.173 14V10.99H140.023V14H138.203V6.58H140.023V9.31H143.173V6.58H144.993V14H143.173ZM148.286 11.83V12.25C148.566 12.4833 148.963 12.6 149.476 12.6C149.812 12.6 150.125 12.558 150.414 12.474C150.704 12.39 150.909 12.3107 151.03 12.236L151.226 12.11V10.92C150.76 10.8733 150.2 10.85 149.546 10.85C148.706 10.85 148.286 11.1767 148.286 11.83ZM149.406 8.12C148.996 8.12 148.594 8.162 148.202 8.246C147.82 8.33 147.54 8.40933 147.362 8.484L147.096 8.61L147.236 6.93C147.292 6.89267 147.376 6.846 147.488 6.79C147.61 6.734 147.88 6.664 148.3 6.58C148.73 6.48667 149.192 6.44 149.686 6.44C150.788 6.44 151.623 6.70133 152.192 7.224C152.762 7.73733 153.046 8.456 153.046 9.38V14H151.226V13.02H151.156C151.138 13.048 151.11 13.09 151.072 13.146C151.035 13.1927 150.946 13.2813 150.806 13.412C150.676 13.5427 150.531 13.6593 150.372 13.762C150.214 13.8553 150.004 13.9393 149.742 14.014C149.481 14.098 149.206 14.14 148.916 14.14C148.114 14.14 147.502 13.9393 147.082 13.538C146.672 13.1367 146.466 12.5673 146.466 11.83C146.466 11.1113 146.7 10.5467 147.166 10.136C147.642 9.72533 148.342 9.52 149.266 9.52C149.64 9.52 149.99 9.534 150.316 9.562C150.643 9.58067 150.876 9.604 151.016 9.632L151.226 9.66V8.61C151.189 8.57267 151.128 8.526 151.044 8.47C150.97 8.414 150.774 8.344 150.456 8.26C150.148 8.16667 149.798 8.12 149.406 8.12Z" fill="#FF7534"/>
<defs>
<clipPath id="clip0_5809_1071">
<rect width="16" height="16" fill="white"/>
</clipPath>
</defs>
</svg>
