<svg width="22" height="22" viewBox="0 0 22 22" fill="none" xmlns="http://www.w3.org/2000/svg">
<path d="M1 20.9999H0.5C0.5 21.2761 0.723858 21.4999 1 21.4999V20.9999ZM20.5858 3.58573L20.9393 3.23218V3.23218L20.5858 3.58573ZM18.4142 1.41415L18.0607 1.76771V1.76771L18.4142 1.41415ZM15.5858 1.41416L15.2322 1.0606V1.0606L15.5858 1.41416ZM1.58579 15.4142L1.93934 15.7677H1.93934L1.58579 15.4142ZM6.58579 20.4142L6.23223 20.0606L6.58579 20.4142ZM18 8.99994L18.3536 9.3535L18 8.99994ZM20.5858 6.41416L20.2322 6.0606V6.0606L20.5858 6.41416ZM0.5 16.8284V20.9999H1.5V16.8284H0.5ZM1 21.4999H5.17157V20.4999H1V21.4999ZM20.9393 3.23218L18.7678 1.0606L18.0607 1.76771L20.2322 3.93928L20.9393 3.23218ZM15.2322 1.0606L12.6464 3.64639L13.3536 4.3535L15.9393 1.76771L15.2322 1.0606ZM12.6464 3.64639L1.23223 15.0606L1.93934 15.7677L13.3536 4.3535L12.6464 3.64639ZM6.93934 20.7677L18.3536 9.3535L17.6464 8.64639L6.23223 20.0606L6.93934 20.7677ZM18.3536 9.3535L20.9393 6.76771L20.2322 6.0606L17.6464 8.64639L18.3536 9.3535ZM12.6464 4.3535L17.6464 9.3535L18.3536 8.64639L13.3536 3.64639L12.6464 4.3535ZM20.2322 3.93928C20.818 4.52507 20.818 5.47482 20.2322 6.0606L20.9393 6.76771C21.9157 5.7914 21.9156 4.20849 20.9393 3.23218L20.2322 3.93928ZM5.17157 21.4999C5.83461 21.4999 6.4705 21.2365 6.93934 20.7677L6.23223 20.0606C5.95093 20.3419 5.5694 20.4999 5.17157 20.4999V21.4999ZM1.5 16.8284C1.5 16.4305 1.65803 16.049 1.93934 15.7677L1.23223 15.0606C0.763391 15.5294 0.5 16.1653 0.5 16.8284H1.5ZM18.7678 1.0606C17.7915 0.0842898 16.2085 0.0842931 15.2322 1.0606L15.9393 1.76771C16.5251 1.18192 17.4749 1.18192 18.0607 1.76771L18.7678 1.0606Z" fill="#383B41"/>
</svg>
