<svg width="320" height="200" viewBox="0 0 320 200" fill="none" xmlns="http://www.w3.org/2000/svg">
<rect width="320" height="200" fill="white"/>
<path d="M218.022 41.4829H101.978C84.9341 41.4829 71.0767 56.5868 71.0767 75.1524V124.85C71.0767 143.413 84.9341 158.517 101.978 158.517H218.022C235.061 158.517 248.924 143.413 248.924 124.85V75.1524C248.924 56.5868 235.061 41.4829 218.022 41.4829ZM238.808 124.85C238.808 137.359 229.5 147.498 218.022 147.498H101.978C90.495 147.498 81.1872 137.359 81.1872 124.85V75.1524C81.1872 62.6442 90.495 52.5028 101.978 52.5028H218.022C229.5 52.5028 238.808 62.6442 238.808 75.1524V124.85Z" fill="#AFAFAF"/>
<path d="M164.839 105.206C160.703 90.5746 147.553 79.8777 131.962 79.8777C119.838 79.8777 109.201 86.3433 103.113 96.0882V133.918H215.538V105.648C208.914 101.074 199.857 98.2535 189.861 98.2535C180.192 98.2535 171.398 100.894 164.839 105.206Z" fill="#AFAFAF"/>
</svg>
