<svg width="106" height="20" viewBox="0 0 106 20" fill="none" xmlns="http://www.w3.org/2000/svg">
<path d="M1.05871 11.3745C0.0949493 8.19412 1.13099 4.70048 3.68496 2.5802C5.94981 0.700866 9.15432 0.194891 11.901 1.25503C14.5996 2.29107 16.5753 4.74867 17.0572 7.59177C17.5631 10.4831 16.3825 13.4948 14.1177 15.3501C11.2987 17.639 7.22679 17.7354 4.23913 15.6874C3.85362 15.4223 3.51631 16.0488 3.87772 16.2897C6.769 18.2654 10.6481 18.3859 13.6358 16.5307C16.3584 14.8441 17.9968 11.7841 17.8764 8.60372C17.7559 5.4474 15.9247 2.48383 13.1298 1.01409C10.2867 -0.455649 6.769 -0.335178 4.09456 1.42369C0.745489 3.59215 -0.772437 7.76043 0.384078 11.5673C0.504548 12.001 1.17918 11.8082 1.05871 11.3745Z" fill="#182840"/>
<path d="M12.9369 9.44726C12.6718 11.6398 10.6479 13.2059 8.45538 12.9409C6.26282 12.6759 4.6967 10.652 4.96174 8.45941C5.22677 6.26685 7.25067 4.70073 9.44323 4.96577C11.6358 5.2308 13.2019 7.23061 12.9369 9.44726Z" fill="#FF7534"/>
<path d="M31.26 14V3.78H38.12V5.6H33.22V7.84H37.56V9.66H33.22V12.18H38.12V14H31.26ZM42.5951 9.45L44.6951 6.58H46.7951L44.1351 10.15L46.8651 14H44.7651L42.7351 11.13H41.6851V14H39.8651V6.58H41.6851V9.45H42.5951ZM51.3527 8.12C50.5407 8.12 50.0087 8.25533 49.7567 8.526C49.5141 8.79667 49.3927 9.38467 49.3927 10.29C49.3927 10.6447 49.4021 10.976 49.4207 11.284C49.4487 11.5827 49.4721 11.7973 49.4907 11.928L49.5327 12.11C49.8594 12.3433 50.4661 12.46 51.3527 12.46C51.7447 12.46 52.1134 12.4133 52.4587 12.32C52.8134 12.2267 53.0654 12.1333 53.2147 12.04L53.4527 11.9V13.58C53.4061 13.6173 53.3314 13.6687 53.2287 13.734C53.1354 13.7993 52.8927 13.8833 52.5007 13.986C52.1181 14.0887 51.6887 14.14 51.2127 14.14C49.9434 14.14 49.0054 13.832 48.3987 13.216C47.8014 12.5907 47.5027 11.6153 47.5027 10.29C47.5027 8.96467 47.8014 7.994 48.3987 7.378C49.0054 6.75267 49.9434 6.44 51.2127 6.44C51.6887 6.44 52.1134 6.482 52.4867 6.566C52.8601 6.64067 53.1121 6.72 53.2427 6.804L53.4527 6.93V8.61C52.9394 8.28333 52.2394 8.12 51.3527 8.12ZM57.7162 9.45L59.8162 6.58H61.9162L59.2562 10.15L61.9862 14H59.8862L57.8562 11.13H56.8062V14H54.9862V6.58H56.8062V9.45H57.7162ZM62.5505 12.32C62.8585 12.32 63.0919 12.2453 63.2505 12.096C63.4185 11.9373 63.5539 11.578 63.6565 11.018C63.7592 10.458 63.8105 9.632 63.8105 8.54V6.58H69.6205V14H67.8005V8.26H65.5605V8.54C65.5605 9.45467 65.5185 10.2433 65.4345 10.906C65.3599 11.5593 65.2479 12.096 65.0985 12.516C64.9585 12.9267 64.7719 13.2533 64.5385 13.496C64.3052 13.7387 64.0532 13.9067 63.7825 14C63.5212 14.0933 63.2039 14.14 62.8305 14.14C62.6625 14.14 62.5132 14.126 62.3825 14.098C62.2612 14.0793 62.1772 14.056 62.1305 14.028L62.0605 14V12.25C62.2005 12.2967 62.3639 12.32 62.5505 12.32ZM77.6771 6.44C79.9638 6.44 81.1071 7.72333 81.1071 10.29C81.1071 12.8567 79.9638 14.14 77.6771 14.14C76.6411 14.14 75.8384 13.8787 75.2691 13.356C74.6998 12.824 74.3684 12.0587 74.2751 11.06H73.2671V14H71.4471V6.58H73.2671V9.38H74.3031C74.5364 7.42 75.6611 6.44 77.6771 6.44ZM77.5371 12.46C78.1811 12.46 78.6198 12.3153 78.8531 12.026C79.0958 11.7273 79.2171 11.1487 79.2171 10.29C79.2171 9.93533 79.2031 9.60867 79.1751 9.31C79.1564 9.002 79.1331 8.78267 79.1051 8.652L79.0771 8.47C78.7504 8.23667 78.3304 8.12 77.8171 8.12C77.1731 8.12 76.7298 8.26933 76.4871 8.568C76.2538 8.85733 76.1371 9.43133 76.1371 10.29C76.1371 10.6447 76.1464 10.976 76.1651 11.284C76.1931 11.5827 76.2211 11.7973 76.2491 11.928L76.2771 12.11C76.6038 12.3433 77.0238 12.46 77.5371 12.46ZM82.226 11.97C82.926 12.2967 83.766 12.46 84.746 12.46C85.726 12.46 86.216 12.18 86.216 11.62C86.216 11.536 86.1973 11.4473 86.16 11.354C86.132 11.2607 86.0993 11.1907 86.062 11.144L86.006 11.06H83.766V9.52H85.236C85.796 9.52 86.076 9.26333 86.076 8.75C86.076 8.64733 86.0573 8.54933 86.02 8.456C85.992 8.36267 85.9593 8.29733 85.922 8.26L85.866 8.19C85.586 8.14333 85.2127 8.12 84.746 8.12C84.354 8.12 83.9573 8.16667 83.556 8.26C83.164 8.35333 82.87 8.44667 82.674 8.54L82.366 8.68V7C82.4313 6.96267 82.5293 6.91133 82.66 6.846C82.7907 6.78067 83.0753 6.69667 83.514 6.594C83.9527 6.49133 84.41 6.44 84.886 6.44C85.9127 6.44 86.6827 6.63133 87.196 7.014C87.7093 7.38733 87.966 7.87267 87.966 8.47C87.966 8.74067 87.9147 8.988 87.812 9.212C87.7187 9.42667 87.602 9.59 87.462 9.702C87.3313 9.814 87.196 9.90733 87.056 9.982C86.9253 10.0567 86.8087 10.1033 86.706 10.122L86.566 10.15V10.22C86.6033 10.2293 86.6547 10.2433 86.72 10.262C86.7947 10.2713 86.9207 10.3133 87.098 10.388C87.2753 10.4627 87.4293 10.556 87.56 10.668C87.7 10.78 87.826 10.948 87.938 11.172C88.05 11.3867 88.106 11.6293 88.106 11.9C88.106 12.572 87.8353 13.1133 87.294 13.524C86.762 13.9347 85.9593 14.14 84.886 14.14C84.3633 14.14 83.878 14.098 83.43 14.014C82.9913 13.9393 82.6833 13.86 82.506 13.776L82.226 13.65V11.97ZM94.4744 9.66L91.4644 14H89.6444V6.58H91.4644V10.92L91.3244 11.62H91.4644L91.7444 10.92L94.7544 6.58H96.5744V14H94.7544V9.66L94.8944 8.96H94.7544L94.4744 9.66ZM98.3944 14V6.58H101.894C102.772 6.58 103.434 6.762 103.882 7.126C104.33 7.48067 104.554 7.952 104.554 8.54C104.554 8.77333 104.508 8.988 104.414 9.184C104.321 9.37067 104.209 9.52 104.078 9.632C103.957 9.73467 103.831 9.82333 103.7 9.898C103.57 9.97267 103.458 10.024 103.364 10.052L103.224 10.08V10.15C103.271 10.1593 103.327 10.1733 103.392 10.192C103.467 10.2013 103.598 10.248 103.784 10.332C103.971 10.4067 104.134 10.5047 104.274 10.626C104.414 10.738 104.54 10.906 104.652 11.13C104.774 11.354 104.834 11.6107 104.834 11.9C104.834 12.5253 104.592 13.034 104.106 13.426C103.63 13.8087 102.94 14 102.034 14H98.3944ZM100.214 12.46H102.034C102.641 12.46 102.944 12.18 102.944 11.62C102.944 11.5173 102.926 11.4147 102.888 11.312C102.851 11.2 102.814 11.116 102.776 11.06L102.734 10.99H100.214V12.46ZM100.214 9.45H101.824C102.384 9.45 102.664 9.19333 102.664 8.68C102.664 8.57733 102.646 8.47933 102.608 8.386C102.571 8.29267 102.534 8.22267 102.496 8.176L102.454 8.12H100.214V9.45Z" fill="#FF7534"/>
</svg>
