<svg width="133" height="20" viewBox="0 0 133 20" fill="none" xmlns="http://www.w3.org/2000/svg">
<path fill-rule="evenodd" clip-rule="evenodd" d="M8 16C12.4183 16 16 12.4183 16 8C16 3.58172 12.4183 0 8 0C3.58172 0 0 3.58172 0 8C0 12.4183 3.58172 16 8 16ZM8.03596 5.24155L10.4774 6.99059V6.99184C10.6394 7.10798 10.7711 7.25977 10.8619 7.43489C10.9527 7.61002 11 7.80358 11 7.99989C11 8.19621 10.9527 8.38976 10.8619 8.56489C10.7711 8.74002 10.6394 8.8918 10.4774 9.00795L8.03596 10.757C7.84542 10.894 7.6197 10.9766 7.38393 10.9957C7.14816 11.0148 6.91159 10.9696 6.70056 10.8652C6.48952 10.7607 6.31229 10.6011 6.18861 10.404C6.06493 10.207 5.99963 9.98031 6 9.74918V6.24936C6.0002 6.01845 6.06583 5.79211 6.18963 5.59541C6.31343 5.39872 6.49057 5.23936 6.7014 5.135C6.91223 5.03063 7.14852 4.98535 7.38408 5.00416C7.61964 5.02296 7.84527 5.10513 8.03596 5.24155Z" fill="#979EA9"/>
<path d="M35.91 14V9.59H31.22V14H29.26V3.78H31.22V7.77H35.91V3.78H37.87V14H35.91ZM46.0869 7.378C46.6749 8.00333 46.9689 8.974 46.9689 10.29C46.9689 11.606 46.6749 12.5767 46.0869 13.202C45.4989 13.8273 44.6029 14.14 43.3989 14.14C42.1949 14.14 41.2989 13.8273 40.7109 13.202C40.1229 12.5767 39.8289 11.606 39.8289 10.29C39.8289 8.974 40.1229 8.00333 40.7109 7.378C41.2989 6.75267 42.1949 6.44 43.3989 6.44C44.6029 6.44 45.4989 6.75267 46.0869 7.378ZM43.2589 12.46C43.9682 12.46 44.4489 12.3153 44.7009 12.026C44.9529 11.7367 45.0789 11.158 45.0789 10.29C45.0789 9.93533 45.0649 9.60867 45.0369 9.31C45.0182 9.002 44.9996 8.78267 44.9809 8.652L44.9389 8.47C44.6122 8.23667 44.1456 8.12 43.5389 8.12C42.8296 8.12 42.3489 8.26467 42.0969 8.554C41.8449 8.84333 41.7189 9.422 41.7189 10.29C41.7189 10.6447 41.7282 10.976 41.7469 11.284C41.7749 11.5827 41.7982 11.7973 41.8169 11.928L41.8589 12.11C42.1856 12.3433 42.6522 12.46 43.2589 12.46ZM48.5838 14V6.58H52.0838C52.9612 6.58 53.6238 6.762 54.0718 7.126C54.5198 7.48067 54.7438 7.952 54.7438 8.54C54.7438 8.77333 54.6972 8.988 54.6038 9.184C54.5105 9.37067 54.3985 9.52 54.2678 9.632C54.1465 9.73467 54.0205 9.82333 53.8898 9.898C53.7592 9.97267 53.6472 10.024 53.5538 10.052L53.4138 10.08V10.15C53.4605 10.1593 53.5165 10.1733 53.5818 10.192C53.6565 10.2013 53.7872 10.248 53.9738 10.332C54.1605 10.4067 54.3238 10.5047 54.4638 10.626C54.6038 10.738 54.7298 10.906 54.8418 11.13C54.9632 11.354 55.0238 11.6107 55.0238 11.9C55.0238 12.5253 54.7812 13.034 54.2958 13.426C53.8198 13.8087 53.1292 14 52.2238 14H48.5838ZM50.4038 12.46H52.2238C52.8305 12.46 53.1338 12.18 53.1338 11.62C53.1338 11.5173 53.1152 11.4147 53.0778 11.312C53.0405 11.2 53.0032 11.116 52.9658 11.06L52.9238 10.99H50.4038V12.46ZM50.4038 9.45H52.0138C52.5738 9.45 52.8538 9.19333 52.8538 8.68C52.8538 8.57733 52.8352 8.47933 52.7978 8.386C52.7605 8.29267 52.7232 8.22267 52.6858 8.176L52.6438 8.12H50.4038V9.45ZM61.3298 9.66L58.3198 14H56.4998V6.58H58.3198V10.92L58.1798 11.62H58.3198L58.5998 10.92L61.6098 6.58H63.4298V14H61.6098V9.66L61.7498 8.96H61.6098L61.3298 9.66ZM70.2198 14V10.99H67.0698V14H65.2498V6.58H67.0698V9.31H70.2198V6.58H72.0398V14H70.2198ZM75.3331 11.83V12.25C75.6131 12.4833 76.0098 12.6 76.5231 12.6C76.8591 12.6 77.1718 12.558 77.4611 12.474C77.7505 12.39 77.9558 12.3107 78.0771 12.236L78.2731 12.11V10.92C77.8065 10.8733 77.2465 10.85 76.5931 10.85C75.7531 10.85 75.3331 11.1767 75.3331 11.83ZM76.4531 8.12C76.0425 8.12 75.6411 8.162 75.2491 8.246C74.8665 8.33 74.5865 8.40933 74.4091 8.484L74.1431 8.61L74.2831 6.93C74.3391 6.89267 74.4231 6.846 74.5351 6.79C74.6565 6.734 74.9271 6.664 75.3471 6.58C75.7765 6.48667 76.2385 6.44 76.7331 6.44C77.8345 6.44 78.6698 6.70133 79.2391 7.224C79.8085 7.73733 80.0931 8.456 80.0931 9.38V14H78.2731V13.02H78.2031C78.1845 13.048 78.1565 13.09 78.1191 13.146C78.0818 13.1927 77.9931 13.2813 77.8531 13.412C77.7225 13.5427 77.5778 13.6593 77.4191 13.762C77.2605 13.8553 77.0505 13.9393 76.7891 14.014C76.5278 14.098 76.2525 14.14 75.9631 14.14C75.1605 14.14 74.5491 13.9393 74.1291 13.538C73.7185 13.1367 73.5131 12.5673 73.5131 11.83C73.5131 11.1113 73.7465 10.5467 74.2131 10.136C74.6891 9.72533 75.3891 9.52 76.3131 9.52C76.6865 9.52 77.0365 9.534 77.3631 9.562C77.6898 9.58067 77.9231 9.604 78.0631 9.632L78.2731 9.66V8.61C78.2358 8.57267 78.1751 8.526 78.0911 8.47C78.0165 8.414 77.8205 8.344 77.5031 8.26C77.1951 8.16667 76.8451 8.12 76.4531 8.12ZM85.3393 11.97C86.0393 12.2967 86.8793 12.46 87.8593 12.46C88.8393 12.46 89.3293 12.18 89.3293 11.62C89.3293 11.536 89.3106 11.4473 89.2733 11.354C89.2453 11.2607 89.2126 11.1907 89.1753 11.144L89.1193 11.06H86.8793V9.52H88.3493C88.9093 9.52 89.1893 9.26333 89.1893 8.75C89.1893 8.64733 89.1706 8.54933 89.1333 8.456C89.1053 8.36267 89.0726 8.29733 89.0353 8.26L88.9793 8.19C88.6993 8.14333 88.326 8.12 87.8593 8.12C87.4673 8.12 87.0706 8.16667 86.6693 8.26C86.2773 8.35333 85.9833 8.44667 85.7873 8.54L85.4793 8.68V7C85.5446 6.96267 85.6426 6.91133 85.7733 6.846C85.904 6.78067 86.1886 6.69667 86.6273 6.594C87.066 6.49133 87.5233 6.44 87.9993 6.44C89.026 6.44 89.796 6.63133 90.3093 7.014C90.8226 7.38733 91.0793 7.87267 91.0793 8.47C91.0793 8.74067 91.028 8.988 90.9253 9.212C90.832 9.42667 90.7153 9.59 90.5753 9.702C90.4446 9.814 90.3093 9.90733 90.1693 9.982C90.0386 10.0567 89.922 10.1033 89.8193 10.122L89.6793 10.15V10.22C89.7166 10.2293 89.768 10.2433 89.8333 10.262C89.908 10.2713 90.034 10.3133 90.2113 10.388C90.3886 10.4627 90.5426 10.556 90.6733 10.668C90.8133 10.78 90.9393 10.948 91.0513 11.172C91.1633 11.3867 91.2193 11.6293 91.2193 11.9C91.2193 12.572 90.9486 13.1133 90.4073 13.524C89.8753 13.9347 89.0726 14.14 87.9993 14.14C87.4766 14.14 86.9913 14.098 86.5433 14.014C86.1046 13.9393 85.7966 13.86 85.6193 13.776L85.3393 13.65V11.97ZM96.5311 14V6.58H100.031C100.908 6.58 101.571 6.762 102.019 7.126C102.467 7.48067 102.691 7.952 102.691 8.54C102.691 8.77333 102.644 8.988 102.551 9.184C102.458 9.37067 102.346 9.52 102.215 9.632C102.094 9.73467 101.968 9.82333 101.837 9.898C101.706 9.97267 101.594 10.024 101.501 10.052L101.361 10.08V10.15C101.408 10.1593 101.464 10.1733 101.529 10.192C101.604 10.2013 101.734 10.248 101.921 10.332C102.108 10.4067 102.271 10.5047 102.411 10.626C102.551 10.738 102.677 10.906 102.789 11.13C102.91 11.354 102.971 11.6107 102.971 11.9C102.971 12.5253 102.728 13.034 102.243 13.426C101.767 13.8087 101.076 14 100.171 14H96.5311ZM98.3511 12.46H100.171C100.778 12.46 101.081 12.18 101.081 11.62C101.081 11.5173 101.062 11.4147 101.025 11.312C100.988 11.2 100.95 11.116 100.913 11.06L100.871 10.99H98.3511V12.46ZM98.3511 9.45H99.9611C100.521 9.45 100.801 9.19333 100.801 8.68C100.801 8.57733 100.782 8.47933 100.745 8.386C100.708 8.29267 100.67 8.22267 100.633 8.176L100.591 8.12H98.3511V9.45ZM106.267 6.58V14H104.447V6.58H106.267ZM106.267 3.78V5.53H104.447V3.78H106.267ZM113.754 15.89V14H108.924V15.89H107.174V12.32H108.154C108.2 12.2453 108.256 12.1287 108.322 11.97C108.396 11.802 108.49 11.382 108.602 10.71C108.723 10.038 108.784 9.268 108.784 8.4V6.58H114.454V12.32H115.504V15.89H113.754ZM110.534 8.4C110.534 9.268 110.482 10.0287 110.38 10.682C110.277 11.3353 110.17 11.7693 110.058 11.984L109.904 12.32H112.634V8.26H110.534V8.4ZM120.269 12.46C120.726 12.46 121.155 12.4273 121.557 12.362C121.967 12.2873 122.261 12.2173 122.439 12.152L122.719 12.04V13.72C122.205 14 121.342 14.14 120.129 14.14C118.859 14.14 117.921 13.832 117.315 13.216C116.717 12.5907 116.419 11.6153 116.419 10.29C116.419 8.974 116.708 8.00333 117.287 7.378C117.875 6.75267 118.752 6.44 119.919 6.44C120.899 6.44 121.669 6.71533 122.229 7.266C122.789 7.81667 123.069 8.568 123.069 9.52V10.85H118.309C118.309 11.0367 118.318 11.2373 118.337 11.452C118.365 11.6573 118.388 11.816 118.407 11.928L118.449 12.11C118.775 12.3433 119.382 12.46 120.269 12.46ZM119.919 8.12C119.321 8.12 118.911 8.22733 118.687 8.442C118.472 8.65667 118.346 9.06267 118.309 9.66H121.249V8.4C120.922 8.21333 120.479 8.12 119.919 8.12ZM130.729 7.378C131.317 8.00333 131.611 8.974 131.611 10.29C131.611 11.606 131.317 12.5767 130.729 13.202C130.141 13.8273 129.245 14.14 128.041 14.14C126.837 14.14 125.941 13.8273 125.353 13.202C124.765 12.5767 124.471 11.606 124.471 10.29C124.471 8.974 124.765 8.00333 125.353 7.378C125.941 6.75267 126.837 6.44 128.041 6.44C129.245 6.44 130.141 6.75267 130.729 7.378ZM127.901 12.46C128.611 12.46 129.091 12.3153 129.343 12.026C129.595 11.7367 129.721 11.158 129.721 10.29C129.721 9.93533 129.707 9.60867 129.679 9.31C129.661 9.002 129.642 8.78267 129.623 8.652L129.581 8.47C129.255 8.23667 128.788 8.12 128.181 8.12C127.472 8.12 126.991 8.26467 126.739 8.554C126.487 8.84333 126.361 9.422 126.361 10.29C126.361 10.6447 126.371 10.976 126.389 11.284C126.417 11.5827 126.441 11.7973 126.459 11.928L126.501 12.11C126.828 12.3433 127.295 12.46 127.901 12.46Z" fill="#979EA9"/>
</svg>
