<svg width="82" height="20" viewBox="0 0 82 20" fill="none" xmlns="http://www.w3.org/2000/svg">
<path fill-rule="evenodd" clip-rule="evenodd" d="M0.369355 1.45353C0.369883 0.650207 1.02153 -0.000588762 1.82486 -6.0714e-05C5.58358 0.00240971 9.18765 1.49665 11.8455 4.15447C14.5033 6.81229 15.9975 10.4164 16 14.1751C16.0005 14.9784 15.3497 15.6301 14.5464 15.6306C13.7431 15.6311 13.0914 14.9803 13.0909 14.177C13.0889 11.1891 11.9011 8.32424 9.78842 6.21151C7.6757 4.09879 4.81079 2.911 1.82295 2.90904C1.01962 2.90851 0.368827 2.25686 0.369355 1.45353Z" fill="#FF7534"/>
<path fill-rule="evenodd" clip-rule="evenodd" d="M0.369354 7.48043C0.369354 6.6771 1.02058 6.02588 1.8239 6.02588C2.89419 6.02588 3.954 6.23669 4.94281 6.64627C5.93163 7.05585 6.83009 7.65618 7.5869 8.41299C8.3437 9.16979 8.94403 10.0683 9.35361 11.0571C9.7632 12.0459 9.974 13.1057 9.974 14.176C9.974 14.9793 9.32278 15.6305 8.51945 15.6305C7.71613 15.6305 7.0649 14.9793 7.0649 14.176C7.0649 13.4877 6.92934 12.8062 6.66596 12.1703C6.40257 11.5345 6.01652 10.9567 5.52985 10.47C5.04318 9.98336 4.46542 9.59731 3.82955 9.33393C3.19368 9.07054 2.51216 8.93498 1.8239 8.93498C1.02058 8.93498 0.369354 8.28376 0.369354 7.48043Z" fill="#FF7534"/>
<path d="M1.82397 15.5153C2.56354 15.5153 3.16308 14.9158 3.16308 14.1762C3.16308 13.4366 2.56354 12.8371 1.82397 12.8371C1.0844 12.8371 0.484863 13.4366 0.484863 14.1762C0.484863 14.9158 1.0844 15.5153 1.82397 15.5153Z" fill="#FF7534"/>
<path d="M36.974 4.858C37.758 5.71667 38.15 7.06067 38.15 8.89C38.15 10.7193 37.758 12.0633 36.974 12.922C36.1993 13.7807 35.028 14.21 33.46 14.21C31.892 14.21 30.716 13.7807 29.932 12.922C29.1573 12.0633 28.77 10.7193 28.77 8.89C28.77 7.06067 29.1573 5.71667 29.932 4.858C30.716 3.99933 31.892 3.57 33.46 3.57C35.028 3.57 36.1993 3.99933 36.974 4.858ZM36.12 8.89C36.12 8.29267 36.106 7.756 36.078 7.28C36.0593 6.79467 36.036 6.46333 36.008 6.286L35.98 6.02C35.9147 5.97333 35.8213 5.91733 35.7 5.852C35.5787 5.77733 35.3127 5.684 34.902 5.572C34.4913 5.45067 34.0573 5.39 33.6 5.39C32.6013 5.39 31.8827 5.64667 31.444 6.16C31.0147 6.67333 30.8 7.58333 30.8 8.89C30.8 9.48733 30.8093 10.0287 30.828 10.514C30.856 10.99 30.884 11.3167 30.912 11.494L30.94 11.76C31.0053 11.8067 31.0987 11.8673 31.22 11.942C31.3413 12.0073 31.6073 12.1007 32.018 12.222C32.4287 12.334 32.8627 12.39 33.32 12.39C34.3187 12.39 35.0327 12.1333 35.462 11.62C35.9007 11.1067 36.12 10.1967 36.12 8.89ZM44.8038 14V10.99H41.6538V14H39.8338V6.58H41.6538V9.31H44.8038V6.58H46.6238V14H44.8038ZM48.0271 12.32C48.3351 12.32 48.5684 12.2453 48.7271 12.096C48.8951 11.9373 49.0304 11.578 49.1331 11.018C49.2358 10.458 49.2871 9.632 49.2871 8.54V6.58H55.0971V14H53.2771V8.26H51.0371V8.54C51.0371 9.45467 50.9951 10.2433 50.9111 10.906C50.8364 11.5593 50.7244 12.096 50.5751 12.516C50.4351 12.9267 50.2484 13.2533 50.0151 13.496C49.7818 13.7387 49.5298 13.9067 49.2591 14C48.9978 14.0933 48.6804 14.14 48.3071 14.14C48.1391 14.14 47.9898 14.126 47.8591 14.098C47.7378 14.0793 47.6538 14.056 47.6071 14.028L47.5371 14V12.25C47.6771 12.2967 47.8404 12.32 48.0271 12.32ZM58.3937 11.83V12.25C58.6737 12.4833 59.0703 12.6 59.5837 12.6C59.9197 12.6 60.2323 12.558 60.5217 12.474C60.811 12.39 61.0163 12.3107 61.1377 12.236L61.3337 12.11V10.92C60.867 10.8733 60.307 10.85 59.6537 10.85C58.8137 10.85 58.3937 11.1767 58.3937 11.83ZM59.5137 8.12C59.103 8.12 58.7017 8.162 58.3097 8.246C57.927 8.33 57.647 8.40933 57.4697 8.484L57.2037 8.61L57.3437 6.93C57.3997 6.89267 57.4837 6.846 57.5957 6.79C57.717 6.734 57.9877 6.664 58.4077 6.58C58.837 6.48667 59.299 6.44 59.7937 6.44C60.895 6.44 61.7303 6.70133 62.2997 7.224C62.869 7.73733 63.1537 8.456 63.1537 9.38V14H61.3337V13.02H61.2637C61.245 13.048 61.217 13.09 61.1797 13.146C61.1423 13.1927 61.0537 13.2813 60.9137 13.412C60.783 13.5427 60.6383 13.6593 60.4797 13.762C60.321 13.8553 60.111 13.9393 59.8497 14.014C59.5883 14.098 59.313 14.14 59.0237 14.14C58.221 14.14 57.6097 13.9393 57.1897 13.538C56.779 13.1367 56.5737 12.5673 56.5737 11.83C56.5737 11.1113 56.807 10.5467 57.2737 10.136C57.7497 9.72533 58.4497 9.52 59.3737 9.52C59.747 9.52 60.097 9.534 60.4237 9.562C60.7503 9.58067 60.9837 9.604 61.1237 9.632L61.3337 9.66V8.61C61.2963 8.57267 61.2357 8.526 61.1517 8.47C61.077 8.414 60.881 8.344 60.5637 8.26C60.2557 8.16667 59.9057 8.12 59.5137 8.12ZM69.8064 9.66L66.7964 14H64.9764V6.58H66.7964V10.92L66.6564 11.62H66.7964L67.0764 10.92L70.0864 6.58H71.9064V14H70.0864V9.66L70.2264 8.96H70.0864L69.8064 9.66ZM68.4764 4.48C68.6817 4.48 68.8731 4.45667 69.0504 4.41C69.2277 4.36333 69.3491 4.31667 69.4144 4.27L69.5264 4.2V3.5H70.9964V3.78C70.9964 4.99333 70.1564 5.6 68.4764 5.6C66.7964 5.6 65.9564 4.99333 65.9564 3.78V3.5H67.4264V4.2C67.6597 4.38667 68.0097 4.48 68.4764 4.48ZM78.6964 14V10.99H75.5464V14H73.7264V6.58H75.5464V9.31H78.6964V6.58H80.5164V14H78.6964Z" fill="#FF7534"/>
</svg>
