<svg width="131" height="20" viewBox="0 0 131 20" fill="none" xmlns="http://www.w3.org/2000/svg">
<g clip-path="url(#clip0_5809_452)">
<path d="M11.814 2L10.872 0.778667C10.6843 0.537204 10.4442 0.341611 10.1698 0.206703C9.89532 0.0717943 9.59378 0.0011087 9.28797 0L6.71197 0C6.40617 0.0011087 6.10463 0.0717943 5.8302 0.206703C5.55576 0.341611 5.31562 0.537204 5.12797 0.778667L4.18597 2H11.814Z" fill="#979EA9"/>
<path d="M7.99998 11.9998C9.47274 11.9998 10.6666 10.8059 10.6666 9.33317C10.6666 7.86041 9.47274 6.6665 7.99998 6.6665C6.52722 6.6665 5.33331 7.86041 5.33331 9.33317C5.33331 10.8059 6.52722 11.9998 7.99998 11.9998Z" fill="#979EA9"/>
<path d="M12.6667 3.3335H3.33333C2.4496 3.33455 1.60237 3.68608 0.97748 4.31098C0.352588 4.93587 0.00105857 5.7831 0 6.66683L0 12.6668C0.00105857 13.5506 0.352588 14.3978 0.97748 15.0227C1.60237 15.6476 2.4496 15.9991 3.33333 16.0002H12.6667C13.5504 15.9991 14.3976 15.6476 15.0225 15.0227C15.6474 14.3978 15.9989 13.5506 16 12.6668V6.66683C15.9989 5.7831 15.6474 4.93587 15.0225 4.31098C14.3976 3.68608 13.5504 3.33455 12.6667 3.3335V3.3335ZM8 13.3335C7.20887 13.3335 6.43552 13.0989 5.77772 12.6594C5.11992 12.2198 4.60723 11.5951 4.30448 10.8642C4.00173 10.1333 3.92252 9.32906 4.07686 8.55313C4.2312 7.77721 4.61216 7.06448 5.17157 6.50507C5.73098 5.94566 6.44371 5.5647 7.21964 5.41036C7.99556 5.25601 8.79983 5.33523 9.53073 5.63798C10.2616 5.94073 10.8864 6.45342 11.3259 7.11121C11.7654 7.76901 12 8.54237 12 9.3335C11.9989 10.394 11.5772 11.4108 10.8273 12.1608C10.0773 12.9107 9.06054 13.3324 8 13.3335V13.3335Z" fill="#979EA9"/>
</g>
<path d="M35.91 14V9.59H31.22V14H29.26V3.78H31.22V7.77H35.91V3.78H37.87V14H35.91ZM46.0869 7.378C46.6749 8.00333 46.9689 8.974 46.9689 10.29C46.9689 11.606 46.6749 12.5767 46.0869 13.202C45.4989 13.8273 44.6029 14.14 43.3989 14.14C42.1949 14.14 41.2989 13.8273 40.7109 13.202C40.1229 12.5767 39.8289 11.606 39.8289 10.29C39.8289 8.974 40.1229 8.00333 40.7109 7.378C41.2989 6.75267 42.1949 6.44 43.3989 6.44C44.6029 6.44 45.4989 6.75267 46.0869 7.378ZM43.2589 12.46C43.9682 12.46 44.4489 12.3153 44.7009 12.026C44.9529 11.7367 45.0789 11.158 45.0789 10.29C45.0789 9.93533 45.0649 9.60867 45.0369 9.31C45.0182 9.002 44.9996 8.78267 44.9809 8.652L44.9389 8.47C44.6122 8.23667 44.1456 8.12 43.5389 8.12C42.8296 8.12 42.3489 8.26467 42.0969 8.554C41.8449 8.84333 41.7189 9.422 41.7189 10.29C41.7189 10.6447 41.7282 10.976 41.7469 11.284C41.7749 11.5827 41.7982 11.7973 41.8169 11.928L41.8589 12.11C42.1856 12.3433 42.6522 12.46 43.2589 12.46ZM48.5838 14V6.58H52.0838C52.9612 6.58 53.6238 6.762 54.0718 7.126C54.5198 7.48067 54.7438 7.952 54.7438 8.54C54.7438 8.77333 54.6972 8.988 54.6038 9.184C54.5105 9.37067 54.3985 9.52 54.2678 9.632C54.1465 9.73467 54.0205 9.82333 53.8898 9.898C53.7592 9.97267 53.6472 10.024 53.5538 10.052L53.4138 10.08V10.15C53.4605 10.1593 53.5165 10.1733 53.5818 10.192C53.6565 10.2013 53.7872 10.248 53.9738 10.332C54.1605 10.4067 54.3238 10.5047 54.4638 10.626C54.6038 10.738 54.7298 10.906 54.8418 11.13C54.9632 11.354 55.0238 11.6107 55.0238 11.9C55.0238 12.5253 54.7812 13.034 54.2958 13.426C53.8198 13.8087 53.1292 14 52.2238 14H48.5838ZM50.4038 12.46H52.2238C52.8305 12.46 53.1338 12.18 53.1338 11.62C53.1338 11.5173 53.1152 11.4147 53.0778 11.312C53.0405 11.2 53.0032 11.116 52.9658 11.06L52.9238 10.99H50.4038V12.46ZM50.4038 9.45H52.0138C52.5738 9.45 52.8538 9.19333 52.8538 8.68C52.8538 8.57733 52.8352 8.47933 52.7978 8.386C52.7605 8.29267 52.7232 8.22267 52.6858 8.176L52.6438 8.12H50.4038V9.45ZM61.3298 9.66L58.3198 14H56.4998V6.58H58.3198V10.92L58.1798 11.62H58.3198L58.5998 10.92L61.6098 6.58H63.4298V14H61.6098V9.66L61.7498 8.96H61.6098L61.3298 9.66ZM70.2198 14V10.99H67.0698V14H65.2498V6.58H67.0698V9.31H70.2198V6.58H72.0398V14H70.2198ZM75.3331 11.83V12.25C75.6131 12.4833 76.0098 12.6 76.5231 12.6C76.8591 12.6 77.1718 12.558 77.4611 12.474C77.7505 12.39 77.9558 12.3107 78.0771 12.236L78.2731 12.11V10.92C77.8065 10.8733 77.2465 10.85 76.5931 10.85C75.7531 10.85 75.3331 11.1767 75.3331 11.83ZM76.4531 8.12C76.0425 8.12 75.6411 8.162 75.2491 8.246C74.8665 8.33 74.5865 8.40933 74.4091 8.484L74.1431 8.61L74.2831 6.93C74.3391 6.89267 74.4231 6.846 74.5351 6.79C74.6565 6.734 74.9271 6.664 75.3471 6.58C75.7765 6.48667 76.2385 6.44 76.7331 6.44C77.8345 6.44 78.6698 6.70133 79.2391 7.224C79.8085 7.73733 80.0931 8.456 80.0931 9.38V14H78.2731V13.02H78.2031C78.1845 13.048 78.1565 13.09 78.1191 13.146C78.0818 13.1927 77.9931 13.2813 77.8531 13.412C77.7225 13.5427 77.5778 13.6593 77.4191 13.762C77.2605 13.8553 77.0505 13.9393 76.7891 14.014C76.5278 14.098 76.2525 14.14 75.9631 14.14C75.1605 14.14 74.5491 13.9393 74.1291 13.538C73.7185 13.1367 73.5131 12.5673 73.5131 11.83C73.5131 11.1113 73.7465 10.5467 74.2131 10.136C74.6891 9.72533 75.3891 9.52 76.3131 9.52C76.6865 9.52 77.0365 9.534 77.3631 9.562C77.6898 9.58067 77.9231 9.604 78.0631 9.632L78.2731 9.66V8.61C78.2358 8.57267 78.1751 8.526 78.0911 8.47C78.0165 8.414 77.8205 8.344 77.5031 8.26C77.1951 8.16667 76.8451 8.12 76.4531 8.12ZM85.3393 11.97C86.0393 12.2967 86.8793 12.46 87.8593 12.46C88.8393 12.46 89.3293 12.18 89.3293 11.62C89.3293 11.536 89.3106 11.4473 89.2733 11.354C89.2453 11.2607 89.2126 11.1907 89.1753 11.144L89.1193 11.06H86.8793V9.52H88.3493C88.9093 9.52 89.1893 9.26333 89.1893 8.75C89.1893 8.64733 89.1706 8.54933 89.1333 8.456C89.1053 8.36267 89.0726 8.29733 89.0353 8.26L88.9793 8.19C88.6993 8.14333 88.326 8.12 87.8593 8.12C87.4673 8.12 87.0706 8.16667 86.6693 8.26C86.2773 8.35333 85.9833 8.44667 85.7873 8.54L85.4793 8.68V7C85.5446 6.96267 85.6426 6.91133 85.7733 6.846C85.904 6.78067 86.1886 6.69667 86.6273 6.594C87.066 6.49133 87.5233 6.44 87.9993 6.44C89.026 6.44 89.796 6.63133 90.3093 7.014C90.8226 7.38733 91.0793 7.87267 91.0793 8.47C91.0793 8.74067 91.028 8.988 90.9253 9.212C90.832 9.42667 90.7153 9.59 90.5753 9.702C90.4446 9.814 90.3093 9.90733 90.1693 9.982C90.0386 10.0567 89.922 10.1033 89.8193 10.122L89.6793 10.15V10.22C89.7166 10.2293 89.768 10.2433 89.8333 10.262C89.908 10.2713 90.034 10.3133 90.2113 10.388C90.3886 10.4627 90.5426 10.556 90.6733 10.668C90.8133 10.78 90.9393 10.948 91.0513 11.172C91.1633 11.3867 91.2193 11.6293 91.2193 11.9C91.2193 12.572 90.9486 13.1133 90.4073 13.524C89.8753 13.9347 89.0726 14.14 87.9993 14.14C87.4766 14.14 86.9913 14.098 86.5433 14.014C86.1046 13.9393 85.7966 13.86 85.6193 13.776L85.3393 13.65V11.97ZM100.241 12.46V8.12C99.4291 8.12 98.8878 8.26467 98.6171 8.554C98.3464 8.84333 98.2111 9.422 98.2111 10.29C98.2111 10.6447 98.2204 10.976 98.2391 11.284C98.2671 11.5827 98.2904 11.7973 98.3091 11.928L98.3511 12.11C98.6778 12.3433 99.3078 12.46 100.241 12.46ZM102.061 8.12V12.46C102.873 12.46 103.414 12.3153 103.685 12.026C103.956 11.7367 104.091 11.158 104.091 10.29C104.091 9.93533 104.077 9.60867 104.049 9.31C104.03 9.002 104.012 8.78267 103.993 8.652L103.951 8.47C103.624 8.23667 102.994 8.12 102.061 8.12ZM102.061 14.14V17.22H100.241V14.14C98.8411 14.1027 97.8378 13.7853 97.2311 13.188C96.6244 12.5907 96.3211 11.6247 96.3211 10.29C96.3211 8.95533 96.6244 7.98933 97.2311 7.392C97.8378 6.79467 98.8411 6.47733 100.241 6.44V3.08H102.061V6.44C103.461 6.47733 104.464 6.79467 105.071 7.392C105.678 7.98933 105.981 8.95533 105.981 10.29C105.981 11.6247 105.678 12.5907 105.071 13.188C104.464 13.7853 103.461 14.1027 102.061 14.14ZM113.64 7.378C114.228 8.00333 114.522 8.974 114.522 10.29C114.522 11.606 114.228 12.5767 113.64 13.202C113.052 13.8273 112.156 14.14 110.952 14.14C109.748 14.14 108.852 13.8273 108.264 13.202C107.676 12.5767 107.382 11.606 107.382 10.29C107.382 8.974 107.676 8.00333 108.264 7.378C108.852 6.75267 109.748 6.44 110.952 6.44C112.156 6.44 113.052 6.75267 113.64 7.378ZM110.812 12.46C111.521 12.46 112.002 12.3153 112.254 12.026C112.506 11.7367 112.632 11.158 112.632 10.29C112.632 9.93533 112.618 9.60867 112.59 9.31C112.571 9.002 112.552 8.78267 112.534 8.652L112.492 8.47C112.165 8.23667 111.698 8.12 111.092 8.12C110.382 8.12 109.902 8.26467 109.65 8.554C109.398 8.84333 109.272 9.422 109.272 10.29C109.272 10.6447 109.281 10.976 109.3 11.284C109.328 11.5827 109.351 11.7973 109.37 11.928L109.412 12.11C109.738 12.3433 110.205 12.46 110.812 12.46ZM115.37 8.26V6.58H121.81V8.26H119.5V14H117.68V8.26H115.37ZM128.911 7.378C129.499 8.00333 129.793 8.974 129.793 10.29C129.793 11.606 129.499 12.5767 128.911 13.202C128.323 13.8273 127.427 14.14 126.223 14.14C125.019 14.14 124.123 13.8273 123.535 13.202C122.947 12.5767 122.653 11.606 122.653 10.29C122.653 8.974 122.947 8.00333 123.535 7.378C124.123 6.75267 125.019 6.44 126.223 6.44C127.427 6.44 128.323 6.75267 128.911 7.378ZM126.083 12.46C126.792 12.46 127.273 12.3153 127.525 12.026C127.777 11.7367 127.903 11.158 127.903 10.29C127.903 9.93533 127.889 9.60867 127.861 9.31C127.842 9.002 127.824 8.78267 127.805 8.652L127.763 8.47C127.436 8.23667 126.97 8.12 126.363 8.12C125.654 8.12 125.173 8.26467 124.921 8.554C124.669 8.84333 124.543 9.422 124.543 10.29C124.543 10.6447 124.552 10.976 124.571 11.284C124.599 11.5827 124.622 11.7973 124.641 11.928L124.683 12.11C125.01 12.3433 125.476 12.46 126.083 12.46Z" fill="#979EA9"/>
<defs>
<clipPath id="clip0_5809_452">
<rect width="16" height="16" fill="white"/>
</clipPath>
</defs>
</svg>
