<svg width="76" height="20" viewBox="0 0 76 20" fill="none" xmlns="http://www.w3.org/2000/svg">
<g clip-path="url(#clip0_1_3539)">
<path d="M15.3333 10.6667C15.2301 10.6667 15.1284 10.6427 15.036 10.5967L13.7027 9.93C13.5444 9.85097 13.4241 9.71231 13.368 9.54452C13.312 9.37674 13.325 9.19358 13.404 9.03533C13.483 8.87709 13.6217 8.75672 13.7895 8.70071C13.9573 8.6447 14.1404 8.65763 14.2987 8.73667L15.632 9.40333C15.7666 9.4704 15.8745 9.581 15.9383 9.71716C16.0021 9.85332 16.018 10.0071 15.9834 10.1534C15.9488 10.2997 15.8658 10.43 15.7478 10.5232C15.6297 10.6164 15.4837 10.667 15.3333 10.6667ZM14.298 4.6L15.6313 3.93333C15.7896 3.8543 15.9099 3.71564 15.966 3.54786C16.022 3.38007 16.009 3.19691 15.93 3.03867C15.851 2.88042 15.7123 2.76005 15.5445 2.70404C15.3767 2.64803 15.1936 2.66097 15.0353 2.74L13.702 3.40667C13.5438 3.4857 13.4234 3.62436 13.3674 3.79214C13.3114 3.95993 13.3243 4.14309 13.4033 4.30133C13.4824 4.45958 13.621 4.57995 13.7888 4.63596C13.9566 4.69197 14.1398 4.67903 14.298 4.6ZM16 6.66667C16 6.48986 15.9298 6.32029 15.8047 6.19526C15.6797 6.07024 15.5101 6 15.3333 6H14C13.8232 6 13.6536 6.07024 13.5286 6.19526C13.4036 6.32029 13.3333 6.48986 13.3333 6.66667C13.3333 6.84348 13.4036 7.01305 13.5286 7.13807C13.6536 7.2631 13.8232 7.33333 14 7.33333H15.3333C15.5101 7.33333 15.6797 7.2631 15.8047 7.13807C15.9298 7.01305 16 6.84348 16 6.66667ZM12 12.6667V0.666667C12 0.489856 11.9298 0.320286 11.8047 0.195262C11.6797 0.0702379 11.5101 0 11.3333 0C11.1565 0 10.987 0.0702379 10.8619 0.195262C10.7369 0.320286 10.6667 0.489856 10.6667 0.666667C10.6667 2.63267 8.94467 3.33333 7.33333 3.33333H2.66667C1.95942 3.33333 1.28115 3.61428 0.781049 4.11438C0.280952 4.61448 0 5.29276 0 6L0 7.33333C0 8.04058 0.280952 8.71885 0.781049 9.21895C1.28115 9.71905 1.95942 10 2.66667 10H7.33333C8.94467 10 10.6667 10.7007 10.6667 12.6667C10.6667 12.8435 10.7369 13.013 10.8619 13.1381C10.987 13.2631 11.1565 13.3333 11.3333 13.3333C11.5101 13.3333 11.6797 13.2631 11.8047 13.1381C11.9298 13.013 12 12.8435 12 12.6667ZM5.45733 11.3333H2.66667C2.35628 11.3321 2.04708 11.2947 1.74533 11.222L3.412 14.9433C3.55198 15.2579 3.78012 15.5251 4.06882 15.7126C4.35753 15.9001 4.6944 16 5.03867 16C5.31257 15.9996 5.58202 15.9307 5.82248 15.7996C6.06293 15.6684 6.26673 15.4791 6.41532 15.249C6.5639 15.0189 6.65254 14.7553 6.67315 14.4822C6.69376 14.2091 6.6457 13.9351 6.53333 13.6853L5.45733 11.3333Z" fill="#979EA9"/>
</g>
<path d="M31.22 5.6V14H29.26V3.78H37.87V14H35.91V5.6H31.22ZM41.8589 6.58V7.56H41.9289C41.9476 7.532 41.9756 7.49467 42.0129 7.448C42.0502 7.392 42.1342 7.29867 42.2649 7.168C42.4049 7.03733 42.5542 6.92533 42.7129 6.832C42.8716 6.72933 43.0816 6.64067 43.3429 6.566C43.6042 6.482 43.8796 6.44 44.1689 6.44C46.0822 6.44 47.0389 7.72333 47.0389 10.29C47.0389 12.8567 46.0822 14.14 44.1689 14.14C43.7116 14.14 43.2962 14.0653 42.9229 13.916C42.5496 13.7573 42.2929 13.6033 42.1529 13.454L41.9289 13.23H41.8589V17.22H40.0389V6.58H41.8589ZM45.1489 10.29C45.1489 9.93533 45.1349 9.60867 45.1069 9.31C45.0882 9.002 45.0649 8.78267 45.0369 8.652L45.0089 8.47C44.6822 8.23667 44.2156 8.12 43.6089 8.12C43.2729 8.12 42.9602 8.15733 42.6709 8.232C42.3816 8.29733 42.1716 8.36267 42.0409 8.428L41.8589 8.54V11.97C42.2789 12.2967 42.8156 12.46 43.4689 12.46C44.1129 12.46 44.5516 12.3153 44.7849 12.026C45.0276 11.7273 45.1489 11.1487 45.1489 10.29ZM54.7002 7.378C55.2882 8.00333 55.5822 8.974 55.5822 10.29C55.5822 11.606 55.2882 12.5767 54.7002 13.202C54.1122 13.8273 53.2162 14.14 52.0122 14.14C50.8082 14.14 49.9122 13.8273 49.3242 13.202C48.7362 12.5767 48.4422 11.606 48.4422 10.29C48.4422 8.974 48.7362 8.00333 49.3242 7.378C49.9122 6.75267 50.8082 6.44 52.0122 6.44C53.2162 6.44 54.1122 6.75267 54.7002 7.378ZM51.8722 12.46C52.5815 12.46 53.0622 12.3153 53.3142 12.026C53.5662 11.7367 53.6922 11.158 53.6922 10.29C53.6922 9.93533 53.6782 9.60867 53.6502 9.31C53.6315 9.002 53.6129 8.78267 53.5942 8.652L53.5522 8.47C53.2255 8.23667 52.7589 8.12 52.1522 8.12C51.4429 8.12 50.9622 8.26467 50.7102 8.554C50.4582 8.84333 50.3322 9.422 50.3322 10.29C50.3322 10.6447 50.3415 10.976 50.3602 11.284C50.3882 11.5827 50.4115 11.7973 50.4302 11.928L50.4722 12.11C50.7989 12.3433 51.2655 12.46 51.8722 12.46ZM64.2671 9.38L62.3771 14H60.9071L59.0171 9.38H58.8771L59.0171 10.08V14H57.1971V6.58H59.5071L61.4671 11.27L61.6071 11.97H61.7471L61.8871 11.27L63.8471 6.58H66.0871V14H64.2671V10.08L64.4071 9.38H64.2671ZM73.9502 7.378C74.5382 8.00333 74.8322 8.974 74.8322 10.29C74.8322 11.606 74.5382 12.5767 73.9502 13.202C73.3622 13.8273 72.4662 14.14 71.2622 14.14C70.0582 14.14 69.1622 13.8273 68.5742 13.202C67.9862 12.5767 67.6922 11.606 67.6922 10.29C67.6922 8.974 67.9862 8.00333 68.5742 7.378C69.1622 6.75267 70.0582 6.44 71.2622 6.44C72.4662 6.44 73.3622 6.75267 73.9502 7.378ZM71.1222 12.46C71.8315 12.46 72.3122 12.3153 72.5642 12.026C72.8162 11.7367 72.9422 11.158 72.9422 10.29C72.9422 9.93533 72.9282 9.60867 72.9002 9.31C72.8815 9.002 72.8629 8.78267 72.8442 8.652L72.8022 8.47C72.4755 8.23667 72.0089 8.12 71.4022 8.12C70.6929 8.12 70.2122 8.26467 69.9602 8.554C69.7082 8.84333 69.5822 9.422 69.5822 10.29C69.5822 10.6447 69.5915 10.976 69.6102 11.284C69.6382 11.5827 69.6615 11.7973 69.6802 11.928L69.7222 12.11C70.0489 12.3433 70.5155 12.46 71.1222 12.46Z" fill="#979EA9"/>
<defs>
<clipPath id="clip0_1_3539">
<rect width="16" height="16" fill="white"/>
</clipPath>
</defs>
</svg>
