<svg width="30" height="31" viewBox="0 0 30 31" fill="none" xmlns="http://www.w3.org/2000/svg">
<g filter="url(#filter0_d_1_6711)">
<path d="M15 2.3335C12.5689 2.3335 10.2373 3.29927 8.5182 5.01835C6.79911 6.73743 5.83334 9.06901 5.83334 11.5002C5.83334 13.9313 6.79911 16.2629 8.5182 17.982C10.2373 19.7011 12.5689 20.6668 15 20.6668C17.4312 20.6668 19.7627 19.7011 21.4818 17.982C23.2009 16.2629 24.1667 13.9313 24.1667 11.5002C24.1667 9.06901 23.2009 6.73743 21.4818 5.01835C19.7627 3.29927 17.4312 2.3335 15 2.3335Z" fill="#919191"/>
<path d="M19.5604 7.37484L17.8435 16.1409C17.8435 16.1409 17.7697 16.5415 17.2729 16.5415C17.0089 16.5415 16.8728 16.4159 16.8728 16.4159L13.1538 13.33L11.3343 12.4128L8.99905 11.7918C8.99905 11.7918 8.58334 11.6717 8.58334 11.328C8.58334 11.0415 9.01097 10.9049 9.01097 10.9049L18.7808 7.02376C18.7803 7.0233 19.0792 6.91605 19.2969 6.91651C19.4307 6.91651 19.5833 6.9738 19.5833 7.14567C19.5833 7.26026 19.5604 7.37484 19.5604 7.37484Z" fill="white"/>
<path d="M14.5417 14.4814L12.9714 16.0278C12.9714 16.0278 12.9031 16.0805 12.8119 16.0828C12.7803 16.0837 12.7464 16.0786 12.7115 16.0631L13.1534 13.3291L14.5417 14.4814Z" fill="#919191"/>
<path d="M17.7028 8.83978C17.6253 8.73895 17.4823 8.72062 17.3815 8.79716L11.3333 12.4166C11.3333 12.4166 12.2986 15.1171 12.4457 15.5846C12.5933 16.0526 12.7116 16.0636 12.7116 16.0636L13.1534 13.3296L17.6597 9.16062C17.7606 9.08408 17.7793 8.94062 17.7028 8.83978Z" fill="#919191"/>
</g>
<defs>
<filter id="filter0_d_1_6711" x="0" y="0.5" width="30" height="30" filterUnits="userSpaceOnUse" color-interpolation-filters="sRGB">
<feFlood flood-opacity="0" result="BackgroundImageFix"/>
<feColorMatrix in="SourceAlpha" type="matrix" values="0 0 0 0 0 0 0 0 0 0 0 0 0 0 0 0 0 0 127 0" result="hardAlpha"/>
<feOffset dy="4"/>
<feGaussianBlur stdDeviation="2"/>
<feComposite in2="hardAlpha" operator="out"/>
<feColorMatrix type="matrix" values="0 0 0 0 0 0 0 0 0 0 0 0 0 0 0 0 0 0 0.25 0"/>
<feBlend mode="normal" in2="BackgroundImageFix" result="effect1_dropShadow_1_6711"/>
<feBlend mode="normal" in="SourceGraphic" in2="effect1_dropShadow_1_6711" result="shape"/>
</filter>
</defs>
</svg>
